<?xml version="1.0" encoding="UTF-8" standalone="no"?>
<svg
   xmlns:dc="http://purl.org/dc/elements/1.1/"
   xmlns:cc="http://creativecommons.org/ns#"
   xmlns:rdf="http://www.w3.org/1999/02/22-rdf-syntax-ns#"
   xmlns:svg="http://www.w3.org/2000/svg"
   xmlns="http://www.w3.org/2000/svg"
   xmlns:sodipodi="http://sodipodi.sourceforge.net/DTD/sodipodi-0.dtd"
   xmlns:inkscape="http://www.inkscape.org/namespaces/inkscape"
   width="256"
   height="125"
   viewBox="0 0 256 125"
   version="1.1"
   preserveAspectRatio="xMinYMin meet"
   id="svg3422"
   inkscape:version="0.91 r"
   sodipodi:docname="react-boilerplate.svg">
  <metadata
     id="metadata3436">
    <rdf:RDF>
      <cc:Work
         rdf:about="">
        <dc:format>image/svg+xml</dc:format>
        <dc:type
           rdf:resource="http://purl.org/dc/dcmitype/StillImage" />
        <dc:title />
      </cc:Work>
    </rdf:RDF>
  </metadata>
  <defs
     id="defs3434" />
  <sodipodi:namedview
     pagecolor="#ffffff"
     bordercolor="#666666"
     borderopacity="1"
     objecttolerance="10"
     gridtolerance="10"
     guidetolerance="10"
     inkscape:pageopacity="0"
     inkscape:pageshadow="2"
     inkscape:window-width="1366"
     inkscape:window-height="718"
     id="namedview3432"
     showgrid="false"
     inkscape:zoom="2.4130435"
     inkscape:cx="128"
     inkscape:cy="98.423424"
     inkscape:window-x="0"
     inkscape:window-y="0"
     inkscape:window-maximized="1"
     inkscape:current-layer="svg3422" />
  <g
     id="g3454"
     transform="matrix(0.35662535,0,0,0.36593264,78.052752,3.659594)">
    <path
       id="path3424"
       d="m 0.75412411,114.75034 c 0,19.21434 18.76247889,37.15171 48.34307589,47.26218 -5.906969,29.73771 -1.058633,53.7061 15.13534,63.04558 16.645727,9.5991 41.44376,2.95452 64.98045,-17.61928 22.94287,19.74325 46.13074,27.51321 62.30962,18.14718 16.62945,-9.62696 21.68777,-35.221 15.61744,-65.88691 30.80976,-10.18643 48.04389,-25.48149 48.04389,-44.94875 0,-18.768874 -18.79729,-35.006478 -47.97892,-45.052348 6.53495,-31.93328 0.9977,-55.320056 -15.8666,-65.045237 -16.25896,-9.375677 -39.716,-1.2038186 -62.99629,19.056504 C 104.12294,2.2045276 80.897347,-4.3611367 64.049392,5.3923895 47.806238,14.794736 43.17111,39.198696 49.0972,69.486941 20.515429,79.452202 0.75412411,96.056526 0.75412411,114.75034 Z"
       inkscape:connector-curvature="0"
       style="fill:#ffffff" />
    <path
       style="fill:#ff7f2a"
       id="path3426"
       d="m 201.02455,79.674118 c -2.34402,-0.806812 -4.7729,-1.570187 -7.27378,-2.292135 0.41105,-1.677575 0.78831,-3.33343 1.12375,-4.961132 5.50611,-26.727365 1.90602,-48.259116 -10.38721,-55.348285 -11.78766,-6.797575 -31.06548,0.289985 -50.53516,17.233847 -1.87224,1.629311 -3.74971,3.354344 -5.62637,5.162231 -1.25044,-1.196141 -2.49886,-2.352063 -3.74407,-3.457709 C 104.17692,17.893455 83.724267,10.258501 71.443105,17.368182 59.666702,24.185464 56.17923,44.427362 61.135535,69.757084 c 0.478617,2.44658 1.038077,4.945043 1.670737,7.485335 -2.89463,0.821694 -5.689113,1.697685 -8.362935,2.629581 -23.922426,8.340412 -39.200377,21.4119 -39.200377,34.97044 0,14.00339 16.400892,28.049 41.317958,36.56557 1.966353,0.67208 4.006711,1.30755 6.10941,1.91085 -0.682532,2.74743 -1.276179,5.43975 -1.774504,8.06571 -4.725844,24.89012 -1.035262,44.6538 10.709769,51.42805 12.131545,6.99586 32.491687,-0.19507 52.317307,-17.52504 1.56697,-1.36989 3.13957,-2.82264 4.71499,-4.34536 2.04197,1.96635 4.08071,3.82733 6.1086,5.57287 19.20342,16.52517 38.16995,23.19807 49.90412,16.40492 12.11948,-7.01597 16.05822,-28.24688 10.94465,-54.07774 -0.39054,-1.97279 -0.84502,-3.98821 -1.35541,-6.03943 1.42982,-0.42271 2.83349,-0.8591 4.20218,-1.31278 25.90366,-8.58253 42.75743,-22.45721 42.75743,-36.64762 0,-13.60761 -15.77065,-26.767178 -40.17491,-35.168322 l 0,0 0,0 z"
       inkscape:connector-curvature="0" />
    <path
       id="path3428"
       d="m 195.40623,142.32755 c -1.23556,0.40904 -2.50329,0.8044 -3.79516,1.1877 -2.85964,-9.05311 -6.71914,-18.67976 -11.44217,-28.62575 4.50705,-9.7091 8.21734,-19.212667 10.99694,-28.207055 2.31144,0.668857 4.55491,1.374315 6.71673,2.118787 20.90955,7.198165 33.6641,17.840768 33.6641,26.041208 0,8.73497 -13.77453,20.07418 -36.14044,27.48511 l 0,0 0,0 z m -9.28035,18.38937 c 2.26116,11.42206 2.58413,21.74894 1.08634,29.82189 -1.34576,7.25407 -4.05216,12.09052 -7.39846,14.02751 -7.12095,4.12174 -22.34902,-1.23596 -38.77204,-15.36844 -1.88269,-1.62006 -3.77907,-3.34992 -5.68147,-5.18074 6.36682,-6.96328 12.73002,-15.05835 18.94038,-24.04871 10.92334,-0.9693 21.24338,-2.55397 30.60216,-4.7174 0.46092,1.85937 0.87036,3.68294 1.22309,5.46589 l 0,0 0,0 z m -93.849242,43.13711 c -6.957248,2.45703 -12.49835,2.52742 -15.847868,0.59606 -7.127378,-4.11089 -10.090382,-19.97927 -6.048679,-41.26527 0.462932,-2.43774 1.013945,-4.94183 1.649018,-7.50143 9.25622,2.0468 19.500644,3.51965 30.450121,4.40731 6.2522,8.79731 12.7992,16.88353 19.39688,23.96385 -1.44148,1.39161 -2.87734,2.71645 -4.30514,3.96488 -8.76675,7.66311 -17.55199,13.10004 -25.294332,15.8346 l 0,0 0,0 z M 59.68279,142.27406 c -11.017854,-3.76579 -20.116814,-8.66016 -26.353722,-14.00097 -5.604248,-4.79944 -8.433722,-9.5643 -8.433722,-13.43065 0,-8.22779 12.266684,-18.722383 32.725367,-25.855392 2.482376,-0.865533 5.080987,-1.681194 7.777735,-2.447384 2.827462,9.197499 6.536547,18.813686 11.012625,28.537666 -4.533995,9.86837 -8.295767,19.63779 -11.150982,28.94308 -1.922514,-0.55262 -3.7851,-1.1342 -5.577301,-1.74635 l 0,0 0,0 z M 70.608541,67.903346 c -4.246423,-21.701882 -1.4262,-38.073011 5.670611,-42.181077 7.55934,-4.376333 24.275158,1.86339 41.893108,17.506941 1.12615,0.999868 2.25674,2.046391 3.39054,3.129112 -6.56511,7.049351 -13.05218,15.074841 -19.24887,23.820267 -10.626917,0.984987 -20.799347,2.56724 -30.152095,4.686027 -0.588016,-2.365336 -1.108864,-4.689244 -1.553294,-6.96127 l 0,0 0,0 z m 97.467419,24.067218 c -2.23582,-3.86192 -4.53118,-7.63254 -6.87117,-11.300198 7.20943,0.911384 14.1168,2.1212 20.60347,3.601697 -1.94745,6.241332 -4.37472,12.76702 -7.23195,19.456807 -2.0496,-3.891283 -4.21746,-7.81474 -6.50035,-11.758306 l 0,0 0,0 z M 128.329,53.256848 c 4.45235,4.823579 8.91113,10.209031 13.29672,16.052186 -4.41937,-0.208742 -8.89344,-0.317336 -13.40451,-0.317336 -4.46844,0 -8.90952,0.106181 -13.30154,0.311303 4.39001,-5.788858 8.8874,-11.16707 13.40933,-16.046153 l 0,0 0,0 z M 88.327441,92.037329 c -2.233414,3.872779 -4.36105,7.774919 -6.378483,11.684301 -2.810972,-6.666459 -5.215723,-13.22191 -7.180066,-19.551726 6.446857,-1.44269 13.321653,-2.622341 20.485229,-3.51643 -2.372977,3.701442 -4.687233,7.499814 -6.92668,11.383051 l 0,8.04e-4 0,0 z m 7.133008,57.682651 c -7.401275,-0.82572 -14.379437,-1.94463 -20.824685,-3.34751 1.995714,-6.44283 4.453556,-13.13825 7.324054,-19.94829 2.022661,3.90657 4.158743,7.81031 6.405832,11.69154 l 4.02e-4,0 c 2.288917,3.95402 4.660286,7.8272 7.094397,11.60426 l 0,0 0,0 z m 33.135611,27.38858 c -4.57502,-4.93619 -9.13838,-10.39645 -13.59515,-16.26977 4.32646,0.16972 8.73738,0.2566 13.2203,0.2566 4.60559,0 9.15848,-0.10377 13.63979,-0.30326 -4.40006,5.9791 -8.84276,11.44781 -13.26494,16.31643 l 0,0 0,0 z m 46.07236,-51.03148 c 3.02011,6.88365 5.56604,13.54407 7.58749,19.87711 -6.55143,1.49457 -13.62491,2.69835 -21.07767,3.59285 2.34563,-3.71713 4.66109,-7.55251 6.93634,-11.49768 2.30179,-3.99143 4.48734,-7.98889 6.55384,-11.97228 l 0,0 0,0 z m -14.91517,7.14991 c -3.53212,6.12429 -7.15835,11.97066 -10.83968,17.48924 -6.70507,0.47942 -13.63215,0.72637 -20.69236,0.72637 -7.03165,0 -13.87146,-0.21839 -20.45788,-0.64593 -3.82974,-5.59098 -7.5348,-11.45464 -11.044398,-17.517 l 8.04e-4,0 c -3.500343,-6.04586 -6.721961,-12.1428 -9.641125,-18.20556 2.91836,-6.07683 6.131532,-12.18061 9.611765,-18.215615 l -8.05e-4,0.0012 c 3.489479,-6.051091 7.161969,-11.886202 10.956319,-17.442187 6.71995,-0.507977 13.61083,-0.773027 20.57492,-0.773027 l 4e-4,0 c 6.99546,0 13.89519,0.26706 20.61313,0.779463 3.73643,5.515362 7.38398,11.331569 10.88714,17.383466 3.54297,6.11986 6.79757,12.18302 9.74087,18.12954 -2.93445,6.04868 -6.18181,12.17297 -9.7091,18.29003 l 0,0 0,0 z m 19.9125,-107.791892 c 7.56658,4.363463 10.50907,21.961301 5.75507,45.037499 -0.30326,1.472452 -0.64473,2.972254 -1.01555,4.492167 -9.37447,-2.16303 -19.55414,-3.772632 -30.21203,-4.7725 -6.20875,-8.841552 -12.64274,-16.87951 -19.10085,-23.838366 1.73629,-1.670335 3.47017,-3.263045 5.19682,-4.766064 16.68162,-14.517393 32.27289,-20.249138 39.37654,-16.152736 l 0,0 0,0 z"
       inkscape:connector-curvature="0"
       style="fill:#ffffff" />
    <path
       style="fill:#ff7f2a"
       id="path3430"
       d="m 128.22121,94.665301 c 11.14334,0 20.17714,9.033399 20.17714,20.177139 0,11.14334 -9.0338,20.17715 -20.17714,20.17715 -11.14334,0 -20.17714,-9.03381 -20.17714,-20.17715 0,-11.14374 9.0338,-20.177139 20.17714,-20.177139"
       inkscape:connector-curvature="0" />
  </g>
  <text
     xml:space="preserve"
     style="font-style:normal;font-weight:normal;font-size:40px;line-height:125%;font-family:sans-serif;letter-spacing:0px;word-spacing:0px;fill:#000000;fill-opacity:1;stroke:none;stroke-width:1px;stroke-linecap:butt;stroke-linejoin:miter;stroke-opacity:1"
     x="21.135134"
     y="114.22521"
     id="text3460"
     sodipodi:linespacing="125%"><tspan
       sodipodi:role="line"
       id="tspan3462"
       x="21.135134"
       y="114.22521"
       style="fill:#483737">boilerplate</tspan></text>
</svg>
